<?xml version="1.0" encoding="utf-8"?>
<!-- Generator: Adobe Illustrator 25.4.1, SVG Export Plug-In . SVG Version: 6.00 Build 0)  -->
<svg version="1.1" id="Capa_1" xmlns="http://www.w3.org/2000/svg" xmlns:xlink="http://www.w3.org/1999/xlink" x="0px" y="0px"
	 viewBox="0 0 750 750" style="enable-background:new 0 0 750 750;" xml:space="preserve">
<style type="text/css">
	.st0{fill:#FF006C;}
	.st1{fill:#00FF48;}
</style>
<g id="Grupo_994" transform="translate(0 0)">
	<g id="Grupo_867">
		<g id="Grupo_865" transform="translate(0 159.285)">
			<path id="Trazado_2106" class="st0" d="M374.98,474.28c-97.18,0-188.75-19.01-257.87-53.56C44.97,384.64,5.28,335.59,5.28,282.54
				c0-67.22,64.83-128.13,173.45-163.01l21.7-6.96l-3.85,22.45c-1.75,10.16-2.63,20.45-2.64,30.76
				c0,82.29,54.15,117.42,181.04,117.42s181.04-35.13,181.04-117.42c-0.01-10.31-0.88-20.6-2.62-30.76l-3.84-22.45l21.66,6.96
				c108.64,34.87,173.49,95.78,173.49,163.01c0,53.05-39.74,102.11-111.9,138.19C563.72,455.27,472.17,474.28,374.98,474.28z
				 M166.73,152.92c-38.34,14.35-70.37,32.55-93.47,53.23c-26.4,23.66-40.39,50.06-40.39,76.38c0,42.02,34.32,82.31,96.6,113.49
				c65.37,32.67,152.55,50.66,245.52,50.66s180.15-17.99,245.51-50.66c62.28-31.17,96.6-71.47,96.6-113.49
				c0-26.32-13.96-52.72-40.37-76.38c-23.11-20.68-55.16-38.88-93.5-53.23c0.27,4.28,0.41,8.55,0.41,12.85
				c0,54.91-21.6,94.67-64.24,118.07c-33.53,18.4-79.39,26.96-144.42,26.96c-65,0-110.92-8.56-144.43-26.96
				c-42.59-23.41-64.23-63.16-64.23-118.07C166.32,161.48,166.46,157.21,166.73,152.92L166.73,152.92z"/>
		</g>
		<g id="Grupo_866" transform="translate(165.018)">
			<path id="Trazado_2107" class="st0" d="M209.97,470.1c-64.99,0-110.9-8.57-144.43-26.96C22.95,419.72,1.32,379.98,1.32,325.06
				c0.02-115.25,93.47-208.66,208.72-208.63c101.54,0.02,188.33,73.13,205.6,173.19l0,0c2,11.71,3,23.56,3,35.44
				c0,54.91-21.61,94.65-64.24,118.07C320.88,461.53,274.99,470.1,209.97,470.1z M209.97,144.01
				c-88.11,0.03-163.42,63.46-178.42,150.28c-1.73,10.17-2.61,20.46-2.61,30.77c0,82.27,54.15,117.41,181.02,117.41
				s181.05-35.14,181.05-117.41c-0.01-10.31-0.88-20.6-2.61-30.77l0,0C373.4,207.47,298.08,144.05,209.97,144.01L209.97,144.01z"/>
		</g>
	</g>
	<g id="Grupo_868" transform="translate(272.398 60.506)">
		<path id="Trazado_2108" class="st1" d="M102.59,137.35c44.96-0.01,81.41,36.44,81.42,81.4c0,0,0,0.01,0,0.01
			c0,31.77-40.7,78.16-64.52,102.26c-9.43,9.51-11.02,11.2-16.11,11.2h-0.79c-5.63-0.19-6.69-1.6-16.24-11.2
			c-23.73-23.9-65.15-70.17-65.15-102.26C21.2,173.81,57.64,137.36,102.59,137.35 M117.56,275.89c1.89-0.02,3.78-0.18,5.65-0.47
			c1.85-0.29,3.63-0.71,5.33-1.15c3.23-0.88,6.38-2.07,9.38-3.56c5.59-2.76,10.67-6.43,15.05-10.86c4.4-4.4,8.07-9.49,10.84-15.07
			c1.44-3.02,2.63-6.15,3.55-9.37c0.45-1.72,0.84-3.47,1.15-5.33c0.32-1.98,0.49-3.98,0.51-5.98h-0.26
			c-1.92,0.01-3.84,0.18-5.73,0.5c-1.79,0.29-3.57,0.67-5.32,1.14c-9.27,2.58-17.7,7.55-24.44,14.41
			c-4.44,4.36-8.11,9.44-10.86,15.03c-1.49,3.01-2.67,6.15-3.55,9.39c-0.48,1.75-0.86,3.53-1.14,5.33c-0.34,1.98-0.5,3.98-0.49,5.99
			L117.56,275.89 M88.54,275.89h0.33c-0.01-2.01-0.18-4.01-0.49-5.99c-0.8-5.12-2.38-10.09-4.71-14.72
			c-2.75-5.58-6.42-10.66-10.84-15.03c-6.75-6.87-15.19-11.84-24.47-14.41c-1.76-0.48-3.54-0.86-5.33-1.14
			c-1.88-0.32-3.79-0.49-5.7-0.5h-0.26c0,2,0.16,4,0.48,5.98c0.33,1.86,0.7,3.61,1.15,5.33c2.6,9.26,7.57,17.68,14.42,24.44
			c4.37,4.43,9.46,8.11,15.05,10.86c3,1.49,6.14,2.68,9.37,3.56c1.72,0.44,3.47,0.85,5.33,1.15
			C84.75,275.71,86.65,275.87,88.54,275.89 M102.6,114.94C45.28,114.99-1.19,161.44-1.25,218.77c0,19.14,9.12,41.14,27.88,67.3
			c14.35,19.98,31.75,38.63,43.8,50.78l1.68,1.68c9.06,9.14,15.59,15.77,29.87,16.13l1.41,0.02c14.35,0,21.19-6.89,31.52-17.36
			l0.52-0.52c11.91-12,29.08-30.59,43.59-51.04c18.46-26.1,27.43-47.98,27.43-66.98C206.37,161.45,159.91,115,102.6,114.94
			L102.6,114.94z"/>
	</g>
</g>
</svg>
