<svg xmlns="http://www.w3.org/2000/svg" xmlns:xlink="http://www.w3.org/1999/xlink" width="368.748" height="701.234" viewBox="0 0 368.748 701.234"><defs><clipPath id="a"><rect width="367.748" height="700.234" rx="25" fill="none"/></clipPath><linearGradient id="b" y1="0.5" x2="1" y2="0.5" gradientUnits="objectBoundingBox"><stop offset="0" stop-color="#fff" stop-opacity="0"/><stop offset="0.432" stop-color="#fff"/></linearGradient></defs><g transform="translate(0.5 0.5)"><g transform="translate(0 0)"><g transform="translate(0 0)"><path d="M27.234,0H340.515c15.041,0,27.233,11.8,27.233,26.361V673.873c0,14.559-12.193,26.361-27.233,26.361H27.234C12.193,700.234,0,688.432,0,673.873V26.361C0,11.8,12.193,0,27.234,0Z" fill="#fff"/><path d="M27.234,0C12.193,0,0,11.8,0,26.361V673.873c0,14.559,12.193,26.361,27.234,26.361H340.515c15.041,0,27.234-11.8,27.234-26.361V26.361C367.748,11.8,355.555,0,340.515,0H27.234m0-.5H340.515A28.338,28.338,0,0,1,351.3,1.609a27.708,27.708,0,0,1,8.815,5.753,26.74,26.74,0,0,1,5.947,8.538,25.969,25.969,0,0,1,2.182,10.461V673.873a25.968,25.968,0,0,1-2.182,10.461,26.739,26.739,0,0,1-5.947,8.538,27.708,27.708,0,0,1-8.815,5.753,28.338,28.338,0,0,1-10.79,2.109H27.234a28.338,28.338,0,0,1-10.79-2.109,27.708,27.708,0,0,1-8.815-5.753,26.739,26.739,0,0,1-5.947-8.538A25.968,25.968,0,0,1-.5,673.873V26.361A25.969,25.969,0,0,1,1.682,15.9,26.74,26.74,0,0,1,7.629,7.362a27.708,27.708,0,0,1,8.815-5.753A28.338,28.338,0,0,1,27.234-.5Z" fill="#ea4728"/><image width="246.338" height="246.338" transform="translate(28.314 157.042)" xlink:href="Grupo%202102-image.png"/><g transform="translate(11.1 9.991)"><g transform="translate(0)"><image width="103.647" height="25.109" xlink:href="Grupo%202102-image2.png" style="isolation:isolate"/></g><g transform="translate(322.115 3.344)" style="isolation:isolate"><rect width="11.029" height="1.62" transform="translate(11.401)" fill="#ea4727"/><path d="M-1-1H12.029V2.62H-1Z" transform="translate(11.401)" fill="#ea4727"/><rect width="12.903" height="1.62" transform="translate(9.528 10.072)" fill="#ea4727"/><path d="M-1-1H13.9V2.62H-1Z" transform="translate(9.528 10.072)" fill="#ea4727"/><rect width="22.43" height="1.62" transform="translate(0 20.144)" fill="#ea4727"/><path d="M-1-1H23.43V2.62H-1Z" transform="translate(0 20.144)" fill="#ea4727"/></g></g><g clip-path="url(#a)"><g style="isolation:isolate"><ellipse cx="409.632" cy="396.507" rx="409.632" ry="396.507" transform="translate(-225.758 412.247)" fill="#fff"/><path d="M409.632-1.067c14.008,0,28.134.69,41.987,2.052,13.653,1.342,27.372,3.369,40.776,6.024,13.231,2.621,26.472,5.916,39.357,9.8,12.741,3.836,25.436,8.333,37.732,13.368a412.365,412.365,0,0,1,130.544,85.2,403.549,403.549,0,0,1,50.153,58.838,393.786,393.786,0,0,1,37.87,67.536,386.436,386.436,0,0,1,0,309.531,393.793,393.793,0,0,1-37.87,67.536,403.546,403.546,0,0,1-50.153,58.838,411.06,411.06,0,0,1-60.782,48.543,415.194,415.194,0,0,1-69.762,36.652c-12.3,5.034-24.991,9.532-37.732,13.368-12.885,3.879-26.126,7.175-39.357,9.8-13.4,2.655-27.123,4.682-40.776,6.024-13.853,1.362-27.979,2.052-41.987,2.052s-28.134-.69-41.987-2.052c-13.653-1.342-27.372-3.369-40.776-6.024-13.231-2.621-26.472-5.916-39.357-9.8-12.741-3.836-25.436-8.333-37.732-13.368a415.194,415.194,0,0,1-69.762-36.652,411.06,411.06,0,0,1-60.782-48.543,403.55,403.55,0,0,1-50.153-58.838,393.793,393.793,0,0,1-37.87-67.536,386.436,386.436,0,0,1,0-309.531,393.786,393.786,0,0,1,37.87-67.536,403.552,403.552,0,0,1,50.153-58.838,412.365,412.365,0,0,1,130.544-85.2c12.3-5.034,24.991-9.532,37.732-13.368,12.885-3.879,26.126-7.175,39.357-9.8,13.4-2.655,27.123-4.682,40.776-6.024C381.5-.376,395.624-1.067,409.632-1.067Zm0,793.013c225.284,0,408.565-177.394,408.565-395.44S634.916,1.067,409.632,1.067,1.067,178.46,1.067,396.507,184.348,791.947,409.632,791.947Z" transform="translate(-225.758 412.247)" fill="#ea4728"/></g></g><text transform="translate(12.702 60.198)" fill="#eb4728" font-size="12" font-family="Roboto-Regular, Roboto" style="isolation:isolate"><tspan x="0" y="0">Entradas</tspan></text><text transform="translate(212.032 60.198)" fill="#eb4728" font-size="12" font-family="Roboto-Regular, Roboto" style="isolation:isolate"><tspan x="0" y="0">Hamburguesas</tspan></text><text transform="translate(117.787 60.198)" fill="#eb4728" font-size="12" font-family="Roboto-Bold, Roboto" font-weight="700" style="isolation:isolate"><tspan x="0" y="0">Alitas</tspan></text><text transform="translate(341.007 60.199)" fill="#eb4728" font-size="12" font-family="Roboto-Regular, Roboto" style="isolation:isolate"><tspan x="0" y="0">Pro</tspan></text><text transform="translate(183.616 465.401)" fill="#ea4728" font-size="14" font-family="SegoeUI, Segoe UI" style="isolation:isolate"><tspan x="-88.7" y="0">Original Hooters Style Wings</tspan></text><text transform="translate(25.337 482.11)" fill="#1c1a19" font-size="18" font-family="Roboto-Regular, Roboto"><tspan x="37.859" y="19">¡Las únicas! Nuestro estilo fue </tspan><tspan x="29.4" y="34">inventado hace más de 30 años. </tspan><tspan x="3.771" y="49">Frescas alitas de pollo empanizadas al </tspan><tspan x="8.702" y="64">momento bañadas con tu wing sauce </tspan></text><g transform="translate(125.471 656.685)"><rect width="132.982" height="28.73" rx="13.555" fill="#ea4728"/><text transform="translate(52.731 15.231)" fill="#fff" font-size="9" font-family="Roboto-Bold, Roboto" font-weight="700" style="isolation:isolate"><tspan x="-47.158" y="0" xml:space="preserve">$364  -  añadir a carrito</tspan></text></g><g transform="translate(122.792 610.202)"><path d="M13.555-.348H119.688a13.9,13.9,0,0,1,13.9,13.9v5.369a13.9,13.9,0,0,1-13.9,13.9H13.555a13.9,13.9,0,0,1-13.9-13.9V13.555a13.9,13.9,0,0,1,13.9-13.9ZM119.688,32.13A13.222,13.222,0,0,0,132.9,18.923V13.555A13.222,13.222,0,0,0,119.688.348H13.555A13.222,13.222,0,0,0,.348,13.555v5.369A13.222,13.222,0,0,0,13.555,32.13Z" transform="translate(0 0)" fill="#ea4728"/><g transform="translate(7.123 7.083)"><text transform="translate(40 12)" fill="#ea4728" font-size="11" font-family="Roboto-Bold, Roboto" font-weight="700" style="isolation:isolate"><tspan x="-40.2" y="0">20 pzas</tspan><tspan y="0" xml:space="preserve" font-family="Roboto-Medium, Roboto" font-weight="500"> (1075g)</tspan></text><g transform="translate(116.909 6.662)"><path d="M615.494,848.79l-1.672,2.9h3.344Z" transform="translate(-613.822 -848.79)" fill="#ea4728" opacity="0.55"/><path d="M615.494,859.234l-1.672-2.9h3.344Z" transform="translate(-613.822 -849.63)" fill="#ea4728" opacity="0.55"/></g></g></g><rect width="33.218" height="18.22" transform="translate(334.531 50.25)" fill="url(#b)"/></g></g></g></svg>